<svg xmlns="http://www.w3.org/2000/svg" viewBox="0 0 1914 1062">
<path fill="#FF3133" d="M532 131L36 462 13 497 13 560 23 582 48 604 521 923 539 926 539 699 547 680 314 530 527 395 551 371 558 347 558 155 547 135Z"/>
<path fill="#7ED956" d="M551 681L542 693 540 700 540 917 546 930 558 940 571 943 778 943 788 941 798 935 809 910 809 702 807 694 799 682 784 674 566 674Z"/>
<path fill="#FFDE59" d="M1390 16L1208 13 1184 23 1171 38 768 1009 768 1026 778 1038 957 1042 975 1037 995 1017 1346 179 1349 145 1367 129 1401 47 1402 31Z"/>
<path fill="#39B8FF" d="M1369 131L1350 149 1349 355 1354 369 1385 399 1592 528 1373 667 1354 688 1349 703 1349 907 1361 924 1377 926 1871 595 1893 563 1894 501 1885 477 1863 456 1398 142Z"/>
</svg>
