<svg xmlns="http://www.w3.org/2000/svg" viewBox="0 0 64 64" width="64" height="64" role="img" aria-labelledby="title desc">
  <title id="title">Data Engineer</title>
  <desc id="desc">Persona icon for Data Engineer. Database cylinder with data pipelines.</desc>
  <defs>
    <linearGradient id="data-engineer-accent" x1="0" y1="0" x2="1" y2="1">
      <stop offset="0" stop-color="#FFB900"/>
      <stop offset="1" stop-color="#B88500"/>
    </linearGradient>
  </defs>
  <rect x="1.5" y="1.5" width="61" height="61" rx="10" ry="10" fill="#FFF7E0" stroke="#FFB900" stroke-width="1.2"/>
  <ellipse cx="32" cy="18" rx="16" ry="5" fill="url(#data-engineer-accent)" stroke="#1A1A1A" stroke-width="1.8"/>
  <path d="M16 18 L16 46 C16 49, 24 51, 32 51 C40 51, 48 49, 48 46 L48 18" fill="url(#data-engineer-accent)" stroke="#1A1A1A" stroke-width="1.8"/>
  <path d="M16 28 C16 31, 24 33, 32 33 C40 33, 48 31, 48 28" fill="none" stroke="#1A1A1A" stroke-width="1.6"/>
  <path d="M16 38 C16 41, 24 43, 32 43 C40 43, 48 41, 48 38" fill="none" stroke="#1A1A1A" stroke-width="1.6"/>
  <circle cx="48" cy="18" r="3" fill="#F25022" stroke="#1A1A1A" stroke-width="1"/>
</svg>
